<svg width="36" height="36" viewBox="0 0 36 36" fill="none" xmlns="http://www.w3.org/2000/svg">
<path fill-rule="evenodd" clip-rule="evenodd" d="M18.3013 9.66827C16.53 9.66827 15.0941 11.1042 15.0941 12.8755C15.0941 14.6469 16.53 16.0828 18.3013 16.0828C20.0726 16.0828 21.5086 14.6469 21.5086 12.8755C21.5086 11.1042 20.0726 9.66827 18.3013 9.66827ZM13.7334 12.8755C13.7334 10.3527 15.7785 8.30762 18.3013 8.30762C20.8241 8.30762 22.8692 10.3527 22.8692 12.8755C22.8692 15.3983 20.8241 17.4435 18.3013 17.4435C15.7785 17.4435 13.7334 15.3983 13.7334 12.8755Z" fill="#484848"/>
<mask id="path-2-inside-1_107_337" fill="white">
<path fill-rule="evenodd" clip-rule="evenodd" d="M11.0987 20.7042C12.5113 19.1951 14.8087 18.0591 18.3339 18.0591C21.8592 18.0591 24.1565 19.1951 25.5691 20.7042C26.9639 22.1944 27.4374 23.9867 27.4374 25.2187C27.4374 25.5945 27.1328 25.8991 26.757 25.8991H9.9108C9.53506 25.8991 9.23047 25.5945 9.23047 25.2187C9.23047 23.9867 9.70394 22.1944 11.0987 20.7042ZM10.649 24.5384H26.0189C25.8773 23.6651 25.4586 22.5773 24.5757 21.6341C23.4614 20.4435 21.5472 19.4197 18.3339 19.4197C15.1207 19.4197 13.2065 20.4435 12.0921 21.6341C11.2093 22.5773 10.7906 23.6651 10.649 24.5384Z"/>
</mask>
<path fill-rule="evenodd" clip-rule="evenodd" d="M11.0987 20.7042C12.5113 19.1951 14.8087 18.0591 18.3339 18.0591C21.8592 18.0591 24.1565 19.1951 25.5691 20.7042C26.9639 22.1944 27.4374 23.9867 27.4374 25.2187C27.4374 25.5945 27.1328 25.8991 26.757 25.8991H9.9108C9.53506 25.8991 9.23047 25.5945 9.23047 25.2187C9.23047 23.9867 9.70394 22.1944 11.0987 20.7042ZM10.649 24.5384H26.0189C25.8773 23.6651 25.4586 22.5773 24.5757 21.6341C23.4614 20.4435 21.5472 19.4197 18.3339 19.4197C15.1207 19.4197 13.2065 20.4435 12.0921 21.6341C11.2093 22.5773 10.7906 23.6651 10.649 24.5384Z" fill="#484848"/>
<path d="M11.0987 20.7042L13.289 22.7543H13.289L11.0987 20.7042ZM25.5691 20.7042L23.3789 22.7543L25.5691 20.7042ZM26.0189 24.5384V27.5384C26.8984 27.5384 27.7336 27.1524 28.3036 26.4826C28.8736 25.8127 29.1209 24.9265 28.9802 24.0583L26.0189 24.5384ZM10.649 24.5384L7.68765 24.0583C7.54689 24.9265 7.79423 25.8127 8.36422 26.4826C8.93422 27.1524 9.76945 27.5384 10.649 27.5384V24.5384ZM24.5757 21.6341L22.3855 23.6841L22.3855 23.6841L24.5757 21.6341ZM12.0921 21.6341L14.2824 23.6841L14.2824 23.6841L12.0921 21.6341ZM18.3339 15.0591C14.1214 15.0591 10.979 16.4421 8.90847 18.6542L13.289 22.7543C14.0436 21.9481 15.4959 21.0591 18.3339 21.0591V15.0591ZM27.7594 18.6542C25.6888 16.4421 22.5465 15.0591 18.3339 15.0591V21.0591C21.1719 21.0591 22.6242 21.9481 23.3789 22.7543L27.7594 18.6542ZM30.4374 25.2187C30.4374 23.3165 29.7335 20.7633 27.7594 18.6542L23.3789 22.7543C24.1943 23.6255 24.4374 24.657 24.4374 25.2187H30.4374ZM26.757 28.8991C28.7896 28.8991 30.4374 27.2513 30.4374 25.2187H24.4374C24.4374 23.9376 25.4759 22.8991 26.757 22.8991V28.8991ZM9.9108 28.8991H26.757V22.8991H9.9108V28.8991ZM6.23047 25.2187C6.23047 27.2513 7.87821 28.8991 9.9108 28.8991V22.8991C11.1919 22.8991 12.2305 23.9376 12.2305 25.2187H6.23047ZM8.90847 18.6542C6.93431 20.7633 6.23047 23.3165 6.23047 25.2187H12.2305C12.2305 24.657 12.4736 23.6255 13.289 22.7543L8.90847 18.6542ZM26.0189 21.5384H10.649V27.5384H26.0189V21.5384ZM22.3855 23.6841C22.8054 24.1328 22.9974 24.6476 23.0575 25.0185L28.9802 24.0583C28.7572 22.6827 28.1118 21.0218 26.766 19.584L22.3855 23.6841ZM18.3339 22.4197C20.8584 22.4197 21.9282 23.1956 22.3855 23.6841L26.766 19.584C24.9945 17.6914 22.2359 16.4197 18.3339 16.4197V22.4197ZM14.2824 23.6841C14.7397 23.1956 15.8094 22.4197 18.3339 22.4197V16.4197C14.4319 16.4197 11.6733 17.6914 9.90187 19.584L14.2824 23.6841ZM13.6103 25.0185C13.6705 24.6476 13.8625 24.1328 14.2824 23.6841L9.90187 19.584C8.55605 21.0218 7.91067 22.6827 7.68765 24.0583L13.6103 25.0185Z" fill="#484848" mask="url(#path-2-inside-1_107_337)"/>
<circle cx="18" cy="18" r="17.25" stroke="#484848" stroke-width="1.5"/>
</svg>
